HIERARCHY
ROOT Hips
{
  OFFSET 50.8665 96.8863 15.8874
  CHANNELS 6 Xposition Yposition Zposition Zrotation Xrotation Yrotation
  JOINT spine
  {
    OFFSET 0 7.96568 0.458067
    CHANNELS 3 Zrotation Xrotation Yrotation
    JOINT spine1
    {
      OFFSET 0 10.2431 0
      CHANNELS 3 Zrotation Xrotation Yrotation
      JOINT spine2
      {
        OFFSET 0 9.81475 0
        CHANNELS 3 Zrotation Xrotation Yrotation
        JOINT Neck
        {
          OFFSET 0 25.1986 1.20138
          CHANNELS 3 Zrotation Xrotation Yrotation
          JOINT Head
          {
            OFFSET 0 7.61315 0
            CHANNELS 3 Zrotation Xrotation Yrotation
            End Site
            {
              OFFSET 0 18.4281 -6.07733
            }
          }
        }
        JOINT RightShoulder
        {
          OFFSET -4.1327 10.5992 -0.575451
          CHANNELS 3 Zrotation Xrotation Yrotation
          JOINT RightArm
          {
            OFFSET 0 13.9018 0
            CHANNELS 3 Zrotation Xrotation Yrotation
            JOINT RightArmRoll
            {
              OFFSET 0 7.01789 0
              CHANNELS 3 Zrotation Xrotation Yrotation
              JOINT RightForeArm
              {
                OFFSET 0 20.4406 0
                CHANNELS 3 Zrotation Xrotation Yrotation
                JOINT RightForeArmRoll
                {
                  OFFSET 0 7.87516 0
                  CHANNELS 3 Zrotation Xrotation Yrotation
                  JOINT RightHand
                  {
                    OFFSET 0 15.8037 0
                    CHANNELS 3 Zrotation Xrotation Yrotation
                    End Site
                    {
                      OFFSET 0 0 0
                    }
                  }
                }
              }
            }
          }
        }
        JOINT LeftShoulder
        {
          OFFSET 4.1327 10.5992 -0.575451
          CHANNELS 3 Zrotation Xrotation Yrotation
          JOINT LeftArm
          {
            OFFSET 0 13.9018 0
            CHANNELS 3 Zrotation Xrotation Yrotation
            JOINT LeftArmRoll
            {
              OFFSET 0 7.01789 0
              CHANNELS 3 Zrotation Xrotation Yrotation
              JOINT LeftForeArm
              {
                OFFSET 0 20.4406 0
                CHANNELS 3 Zrotation Xrotation Yrotation
                JOINT LeftForeArmRoll
                {
                  OFFSET 0 7.87516 0
                  CHANNELS 3 Zrotation Xrotation Yrotation
                  JOINT LeftHand
                  {
                    OFFSET 0 15.8037 0
                    CHANNELS 3 Zrotation Xrotation Yrotation
                    End Site
                    {
                      OFFSET 0 0 0
                    }
                  }
                }
              }
            }
          }
        }
      }
    }
  }
  JOINT RightUpLeg
  {
    OFFSET -7.06048 -1.2947 -1.0861
    CHANNELS 3 Zrotation Xrotation Yrotation
    JOINT RightUpLegRoll
    {
      OFFSET 0 18.5308 0
      CHANNELS 3 Zrotation Xrotation Yrotation
      JOINT RightLeg
      {
        OFFSET 0 -22.9476 0
        CHANNELS 3 Zrotation Xrotation Yrotation
        JOINT RightLegRoll
        {
          OFFSET 0 23.0226 0
          CHANNELS 3 Zrotation Xrotation Yrotation
          JOINT RightFoot
          {
            OFFSET 0 19.1625 0
            CHANNELS 3 Zrotation Xrotation Yrotation
            JOINT RightToeBase
            {
              OFFSET 0 16.0188 0
              CHANNELS 3 Zrotation Xrotation Yrotation
              End Site
              {
                OFFSET 0.00678979 7.75782 -0.894206
              }
            }
          }
        }
      }
    }
  }
  JOINT LeftUpLeg
  {
    OFFSET 7.06048 -1.2947 -1.0861
    CHANNELS 3 Zrotation Xrotation Yrotation
    JOINT LeftUpLegRoll
    {
      OFFSET 0 18.5309 0
      CHANNELS 3 Zrotation Xrotation Yrotation
      JOINT LeftLeg
      {
        OFFSET 0 22.9475 0
        CHANNELS 3 Zrotation Xrotation Yrotation
        JOINT LeftLegRoll
        {
          OFFSET 0 23.2355 0
          CHANNELS 3 Zrotation Xrotation Yrotation
          JOINT LeftFoot
          {
            OFFSET 0 18.9496 0
            CHANNELS 3 Zrotation Xrotation Yrotation
            JOINT LeftToeBase
            {
              OFFSET 0 16.0188 0
              CHANNELS 3 Zrotation Xrotation Yrotation
              End Site
              {
                OFFSET -0.0304289 7.75782 -0.894207
              }
            }
          }
        }
      }
    }
  }
}
MOTION
Frames: 6
Frame Time: 0.00208333
51.3809 96.7205 16.0652 0.229672 -7.18989 -2.96846 0.140534 -0.492104 -0.412026 0.283021 3.01706 -0.835726 0.293412 4.66204 -0.841236 -4.96942 13.7822 7.46211 4.77305 10.3274 6.27268 64.9765 -3.52274 -2.67535 107.875 18.7369 19.4981 -1.39512e-005 1.45278e-006 -1.34203e-006 -4.32219 8.51798 -0.584738 -2.33651e-006 -1.48624e-006 -3.01324 8.03011 -4.95137 0.697627 -66.5062 -5.75589 3.97783 -106.272 17.3932 -12.994 -3.18055e-015 3.18055e-015 -1.59028e-015 1.1491 3.82235 0.976215 -6.18877e-006 -1.40438e-006 3.00682 -8.03025 -4.9514 -0.697632 172.595 -6.62514 5.7301 180 7.01486e-015 178.683 178.668 6.58293 179.626 3.03992e-006 -3.51846e-006 0.114267 -19.335 68.5063 19.9781 8.13649 25.2327 -3.48774 -174.009 -7.28293 -2.92641 4.5067e-006 -1.99009e-005 -1.30776 -2.46512 -6.87629 6.21045e-005 3.13872e-007 2.19041e-006 -0.115957 19.5686 68.8403 -20.2734 -8.1365 25.2327 3.48774 
51.3792 96.7185 16.0646 0.230167 -7.18636 -2.96021 0.141051 -0.494278 -0.412039 0.284029 3.01275 -0.836171 0.294426 4.65773 -0.841698 -4.98068 13.9032 7.48409 4.75489 10.2827 6.28791 64.9732 -3.53371 -2.68107 107.883 18.7137 19.7064 -1.39512e-005 1.45278e-006 -1.34203e-006 -4.49306 8.50949 -0.568323 -2.33651e-006 -1.48624e-006 -3.01324 8.03011 -4.95137 0.697627 -66.5111 -5.74349 3.97149 -106.264 17.4089 -12.9807 5.56597e-015 0 4.77083e-015 1.13748 3.78517 0.977121 -6.18877e-006 -1.40438e-006 3.00682 -8.03025 -4.9514 -0.697632 172.598 -6.63119 5.72782 180 7.01485e-015 178.682 178.667 6.5639 179.626 3.03992e-006 -3.51846e-006 0.113514 -19.3266 68.4969 19.969 8.13649 25.2327 -3.48774 -174.033 -7.2974 -2.88042 4.5067e-006 -1.99009e-005 -1.30776 -2.42089 -6.8306 0.00321803 3.13872e-007 2.19041e-006 -0.115877 19.5701 68.842 -20.275 -8.1365 25.2327 3.48774 
51.3651 96.7475 16.0621 0.230655 -7.18255 -2.95143 0.141552 -0.496549 -0.412028 0.285034 3.00824 -0.836571 0.295437 4.65323 -0.842114 -4.99144 14.0252 7.50629 4.73698 10.2375 6.30347 64.9713 -3.54459 -2.68684 107.891 18.689 19.9136 -1.39512e-005 1.45278e-006 -1.34203e-006 -4.66232 8.50091 -0.552136 -2.33651e-006 -1.48624e-006 -3.01324 8.03011 -4.95137 0.697627 -66.5155 -5.73047 3.96478 -106.259 17.4243 -12.9622 6.36111e-015 0 1.59028e-015 1.122 3.75054 0.977953 -6.18877e-006 -1.40438e-006 3.00682 -8.03025 -4.9514 -0.697632 172.602 -6.63747 5.72543 180 7.01485e-015 178.682 178.667 6.5441 179.626 3.03992e-006 -3.51846e-006 0.112724 -19.3179 68.4871 19.9595 8.13649 25.2327 -3.48774 -174.057 -7.31197 -2.83283 4.5067e-006 -1.99009e-005 -1.30775 -2.3751 -6.78373 0.00648248 3.13872e-007 2.19041e-006 -0.115802 19.5719 68.8439 -20.2769 -8.1365 25.2327 3.48774 
51.3697 96.7418 16.0624 0.231136 -7.17855 -2.94226 0.142042 -0.498888 -0.412 0.286036 3.0036 -0.836939 0.296445 4.64859 -0.842498 -5.00188 14.148 7.52866 4.71923 10.1917 6.31925 64.9702 -3.55542 -2.69265 107.897 18.6631 20.12 -1.39512e-005 1.45278e-006 -1.34203e-006 -4.83045 8.49227 -0.536108 -2.33651e-006 -1.48624e-006 -3.01324 8.03011 -4.95137 0.697627 -66.5197 -5.71701 3.95783 -106.256 17.4395 -12.9401 8.74653e-015 -3.18055e-015 1.59028e-015 1.10382 3.7177 0.978734 -6.18877e-006 -1.40438e-006 3.00682 -8.03025 -4.9514 -0.697632 172.605 -6.6439 5.72295 180 7.01485e-015 178.681 178.667 6.52373 179.627 3.03992e-006 -3.51846e-006 0.11191 -19.3089 68.477 19.9498 8.13649 25.2327 -3.48774 -174.082 -7.32661 -2.78412 4.5067e-006 -1.99009e-005 -1.30774 -2.32823 -6.73603 0.00982267 3.13872e-007 2.19041e-006 -0.115732 19.5738 68.846 -20.2789 -8.1365 25.2327 3.48774 
51.3598 96.7635 16.0484 0.231614 -7.17445 -2.93287 0.142526 -0.501265 -0.411963 0.287038 2.99888 -0.837289 0.297451 4.64387 -0.842864 -5.01217 14.2712 7.55115 4.7016 10.1458 6.33517 64.9696 -3.56622 -2.69847 107.903 18.6365 20.326 -1.39512e-005 1.45278e-006 -1.34203e-006 -4.99793 8.48359 -0.520172 -2.33651e-006 -1.48624e-006 -3.01324 8.03011 -4.95137 0.697627 -66.5236 -5.7033 3.95074 -106.253 17.4545 -12.9159 -6.36111e-015 -9.54166e-015 -1.59028e-015 1.08411 3.68588 0.979486 -6.18877e-006 -1.40438e-006 3.00682 -8.03025 -4.9514 -0.697632 172.609 -6.65042 5.72044 180 7.01485e-015 178.68 178.666 6.50307 179.627 3.03992e-006 -3.51846e-006 0.11108 -19.2999 68.4667 19.9399 8.13649 25.2327 -3.48774 -174.107 -7.34129 -2.73477 4.5067e-006 -1.99009e-005 -1.30773 -2.28074 -6.68787 0.0132058 3.13872e-007 2.19041e-006 -0.115664 19.5757 68.8481 -20.281 -8.1365 25.2327 3.48774 
51.3619 96.7644 16.0473 0.232089 -7.17031 -2.92343 0.143008 -0.503652 -0.411923 0.288038 2.99415 -0.837635 0.298456 4.63914 -0.843226 -5.02251 14.3945 7.57371 4.68402 10.0997 6.35113 64.9691 -3.577 -2.7043 107.909 18.6096 20.5319 -1.39512e-005 1.45278e-006 -1.34203e-006 -5.16525 8.4749 -0.504259 -2.33651e-006 -1.48624e-006 -3.01324 8.03011 -4.95137 0.697627 -66.5275 -5.68953 3.94361 -106.251 17.4694 -12.8911 8.74653e-015 3.18055e-015 -0 1.06401 3.65432 0.98023 -6.18877e-006 -1.40438e-006 3.00682 -8.03025 -4.9514 -0.697632 172.613 -6.65696 5.7179 180 7.01484e-015 178.679 178.666 6.48232 179.628 3.03992e-006 -3.51846e-006 0.110247 -19.2907 68.4565 19.9301 8.13649 25.2327 -3.48774 -174.132 -7.35596 -2.68526 4.5067e-006 -1.99009e-005 -1.30772 -2.23311 -6.63959 0.0165993 3.13872e-007 2.19041e-006 -0.115596 19.5777 68.8503 -20.2832 -8.1365 25.2327 3.48774 
